# AST/ASF file generated using VICON BodyLanguage
# -----------------------------------------------
:version 1.10
:name VICON
:units
  mass 1.0
  length 0.45
  angle deg
:documentation
   .ast/.asf automatically generated from VICON data using
   VICON BodyBuilder and BodyLanguage model FoxedUp or BRILLIANT.MOD
:root
   order TX TY TZ RX RY RZ
   axis XYZ
   position 0 0 0  
   orientation 0 0 0 
:bonedata
  begin
     id 1 
     name lhipjoint
     direction 0.653368 -0.678499 0.335782 
     length 2.51848 
     axis 0 0 0  XYZ
  end
  begin
     id 2 
     name lfemur
     direction 0.34202 -0.939693 0  
     length 6.57749  
     axis 0 0 20  XYZ
    dof rx ry rz
    limits (-160.0 20.0)
           (-70.0 70.0)
           (-60.0 70.0)
  end
  begin
     id 3 
     name ltibia
     direction 0.34202 -0.939693 0   
     length 7.94618   
     axis 0 0 20   XYZ
    dof rx
    limits (-10.0 170.0)
  end
  begin
     id 4 
     name lfoot
     direction 0.0811271 -0.222895 0.971461   
     length 2.31339   
     axis -90 7.62852e-016 20   XYZ
    dof rx rz
    limits (-45.0 90.0)
           (-70.0 20.0)
  end
  begin
     id 5 
     name ltoes
     direction 1.53568e-011 -4.21885e-011 1   
     length 1.15935   
     axis -90 7.62852e-016 20   XYZ
    dof rx
    limits (-90.0 20.0)
  end
  begin
     id 6 
     name rhipjoint
     direction -0.640058 -0.688614 0.340788   
     length 2.48149  
     axis 0 0 0  XYZ 
  end
  begin
     id 7 
     name rfemur
     direction -0.34202 -0.939693 0   
     length 6.57875   
     axis 0 0 -20   XYZ
    dof rx ry rz
    limits (-160.0 20.0)
           (-70.0 70.0)
           (-70.0 60.0)
  end
  begin
     id 8 
     name rtibia
     direction -0.34202 -0.939693 0   
     length 7.977   
     axis 0 0 -20   XYZ
    dof rx
    limits (-10.0 170.0)
 end
 begin
     id 9 
     name rfoot
     direction -0.0979793 -0.269196 0.958089   
     length 2.19857  
     axis -90 -7.62852e-016 -20   XYZ
    dof rx rz
    limits (-45.0 90.0)
           (-20.0 70.0)
  end
  begin
     id 10 
     name rtoes
     direction -1.53556e-011 -4.21868e-011 1   
     length 1.09838   
     axis -90 -7.62852e-016 -20   XYZ
    dof rx
    limits (-90.0 20.0)
  end
  begin
     id 11 
     name lowerback
     direction 0.0149039 0.998517 -0.0523597   
     length 2.10809   
     axis 0 0 0   XYZ
    dof rx ry rz
    limits (-20.0 45.0)
           (-30.0 30.0)
           (-30.0 30.0)
  end
  begin
     id 12 
     name upperback
     direction -0.00882659 0.999418 -0.0329624   
     length 2.1102   
     axis 0 0 0   XYZ
    dof rx ry rz
    limits (-20.0 45.0)
           (-30.0 30.0)
           (-30.0 30.0)
  end
  begin
     id 13 
     name thorax
     direction -0.0165585 0.999826 -0.0085833   
     length 2.11039   
     axis 0 0 0   XYZ
    dof rx ry rz
    limits (-20.0 45.0)
           (-30.0 30.0)
           (-30.0 30.0)
  end
  begin
     id 14 
     name lowerneck
     direction -0.0130877 0.999911 0.00260353   
     length 1.73253   
     axis 0 0 0   XYZ
    dof rx ry rz
    limits (-20.0 45.0)
           (-30.0 30.0)
           (-30.0 30.0)
  end
  begin
     id 15 
     name upperneck
     direction -0.0348454 0.928205 -0.370435   
     length 1.66692   
     axis 0 0 0   XYZ
    dof rx ry rz
    limits (-20.0 45.0)
           (-30.0 30.0)
           (-30.0 30.0)
  end
  begin
     id 16
     name head
     direction -0.00807754 0.992494 -0.122026  
     length 1.72765  
     axis 0 0 0   XYZ
    dof rx ry rz
    limits (-20.0 45.0)
           (-30.0 30.0)
           (-30.0 30.0)
  end
  begin
     id 17 
     name lclavicle
     direction 0.987582 0.144023 0.0627671  
     length 3.49235  
     axis 0 0 0   XYZ
    dof ry rz
    limits (-20.0 10.0)
           (0.0 20.0)
  end
  begin
     id 18 
     name lhumerus
     direction 1 -4.48958e-011 -1.45183e-018   
     length 5.41917   
     axis 180 -30 -90   XYZ
    dof rx ry rz
    limits (-60.0 90.0)
           (-90.0 90.0)
           (-90.0 90.0)
  end
  begin
     id 19
     name lradius
     direction 1 -4.48999e-011 5.75106e-027   
     length 2.44373   
     axis 180 -30 -90   XYZ
    dof rx
    limits (-10.0 170.0)
  end
  begin
     id 20
     name lwrist
     direction 1 -4.48987e-011 1.53461e-026   
     length 1.22186   
     axis -1.09697e-014 90 90   XYZ
    dof ry
    limits (-180.0 0.0)
 end
  begin
     id 21 
     name lhand
     direction 1 -4.48881e-011 3.06923e-026   
     length 0.727502   
     axis -1.95843e-014 90 90   XYZ
    dof rx rz
    limits (-90.0 90.0)
           (-45.0 45.0)
  end
  begin
     id 22 
     name lfingers
     direction 1 -4.48907e-011 6.13845e-026   
     length 0.586531   
     axis -3.91686e-014 90 90   XYZ
    dof rx
    limits (0.0 90.0)
  end
  begin
     id 23
     name lthumb
     direction 0.707107 -6.3487e-011 0.707107   
     length 0.842145   
     axis -90 45 2.85299e-015   XYZ
    dof rx rz
    limits (-45.0 45.0)
           (-45.0 45.0)
  end
  begin
     id 24 
     name rclavicle
     direction -0.980998 0.169556 0.0943023   
     length 3.29272  
     axis 0 0 0   XYZ 
    dof ry rz
    limits (-10.0 20.0)
           (-20.0 0.0)
  end
  begin
     id 25 
     name rhumerus
     direction -1 -1.83355e-005 2.45537e-005  
     length 5.58976   
     axis 180 30 90   XYZ
    dof rx ry rz
    limits (-90.0 60.0)
           (-90.0 90.0)
           (-90.0 90.0)
  end
  begin
     id 26 
     name rradius
     direction -1 -4.48967e-011 5.97228e-027   
     length 2.4806   
     axis 180 30 90   XYZ
    dof rx
    limits (-10.0 170.0)
  end
  begin
     id 27 
     name rwrist
     direction -1 -4.48963e-011 1.53461e-026   
     length 1.2403   
     axis -1.09697e-014 -90 -90   XYZ
    dof ry
    limits (-180.0 0.0)
  end
  begin
     id 28
     name rhand
     direction -1 -4.48881e-011 3.06923e-026   
     length 0.816009   
     axis -1.95843e-014 -90 -90   XYZ
    dof rx rz
    limits (-90.0 90.0)
           (-45.0 45.0)
  end
  begin
     id 29
     name rfingers
     direction -1 -4.49018e-011 6.13845e-026   
     length 0.657887   
     axis -3.91686e-014 -90 -90   XYZ
    dof rx
    limits (0.0 90.0)
  end
  begin
     id 30
     name rthumb
     direction -0.707107 -6.34872e-011 0.707107   
     length 0.944599   
     axis -90 -45 -2.85299e-015   XYZ
    dof rx rz
    limits (-45.0 45.0)
           (-45.0 45.0)
  end
:hierarchy
  begin
    root lhipjoint rhipjoint lowerback
    lhipjoint lfemur
    lfemur ltibia
    ltibia lfoot
    lfoot ltoes
    rhipjoint rfemur
    rfemur rtibia
    rtibia rfoot
    rfoot rtoes
    lowerback upperback
    upperback thorax
    thorax lowerneck lclavicle rclavicle
    lowerneck upperneck
    upperneck head
    lclavicle lhumerus
    lhumerus lradius
    lradius lwrist
    lwrist lhand lthumb
    lhand lfingers
    rclavicle rhumerus
    rhumerus rradius
    rradius rwrist
    rwrist rhand rthumb
    rhand rfingers
  end

:FULLY-SPECIFIED
:DEGREES
1
root 1.1693 17.4675 40.7751 13.3221 -45.7930 -0.7518
lowerback -10.5912 2.2293 -0.2827
upperback -5.9323 2.8776 -0.3526
thorax -0.2395 1.3981 0.0747
lowerneck -16.1743 -5.7961 -5.8111
upperneck 36.8851 -10.2442 6.6284
head 16.7405 -4.3833 1.9273
rclavicle -0.0000 -0.0000
rhumerus -40.4466 -11.3211 -75.3248
rradius 24.4310
rwrist -9.1235
rhand -3.2637 13.0688
rfingers 7.1250
rthumb 22.4602 -15.6379
lclavicle -0.0000 -0.0000
lhumerus -45.0932 27.3590 54.8882
lradius 34.6935
lwrist 4.7209
lhand -3.9032 20.7108
lfingers 7.1250
lthumb 21.8469 49.4973
rfemur -1.1354 18.7356 13.5418
rtibia 17.0171
rfoot -7.4287 -27.8827
rtoes 13.9633
lfemur -21.3304 -2.3328 -20.4561
ltibia 24.7440
lfoot -20.7613 26.1369
ltoes 4.7153
2
root 1.2780 17.4374 38.8437 13.9034 -43.9024 -0.8362
lowerback -10.8655 2.0486 -0.1366
upperback -6.1301 2.6218 -0.1583
thorax -0.3029 1.2702 0.1632
lowerneck -16.1087 -5.8846 -5.7099
upperneck 36.9708 -10.2727 6.3026
head 16.7335 -4.4200 1.7669
rclavicle -0.0000 -0.0000
rhumerus -40.7925 -10.6745 -75.3475
rradius 24.4410
rwrist -9.4615
rhand -2.9937 13.0476
rfingers 7.1250
rthumb 22.7186 -15.6208
lclavicle -0.0000 -0.0000
lhumerus -45.4835 26.3301 56.0164
lradius 34.6167
lwrist 4.7738
lhand -3.8424 20.5577
lfingers 7.1250
lthumb 21.9052 49.3370
rfemur -2.6173 18.2576 14.2331
rtibia 17.4507
rfoot -8.2559 -28.0588
rtoes 14.1410
lfemur -21.3507 -1.6005 -20.6948
ltibia 25.2545
lfoot -18.7263 26.5251
ltoes 4.9061
3
root 1.3868 17.4072 36.9122 14.4847 -42.0119 -0.9206
lowerback -11.1398 1.8678 0.0094
upperback -6.3279 2.3661 0.0360
thorax -0.3664 1.1422 0.2516
lowerneck -16.0432 -5.9730 -5.6088
upperneck 37.0565 -10.3013 5.9768
head 16.7265 -4.4568 1.6066
rclavicle -0.0000 -0.0000
rhumerus -41.1383 -10.0279 -75.3701
rradius 24.4510
rwrist -9.7995
rhand -2.7237 13.0264
rfingers 7.1250
rthumb 22.9771 -15.6037
lclavicle -0.0000 -0.0000
lhumerus -45.8739 25.3013 57.1446
lradius 34.5399
lwrist 4.8268
lhand -3.7816 20.4046
lfingers 7.1250
lthumb 21.9636 49.1768
rfemur -4.0992 17.7795 14.9245
rtibia 17.8842
rfoot -9.0832 -28.2349
rtoes 14.3187
lfemur -21.3711 -0.8683 -20.9334
ltibia 25.7649
lfoot -16.6914 26.9134
ltoes 5.0968
4
root 1.4955 17.3771 34.9808 15.0660 -40.1213 -1.0050
lowerback -11.4141 1.6871 0.1555
upperback -6.5257 2.1104 0.2303
thorax -0.4299 1.0142 0.3401
lowerneck -15.9776 -6.0614 -5.5077
upperneck 37.1423 -10.3299 5.6510
head 16.7195 -4.4935 1.4463
rclavicle -0.0000 -0.0000
rhumerus -41.4841 -9.3813 -75.3928
rradius 24.4610
rwrist -10.1376
rhand -2.4537 13.0052
rfingers 7.1250
rthumb 23.2356 -15.5865
lclavicle -0.0000 -0.0000
lhumerus -46.2643 24.2724 58.2728
lradius 34.4630
lwrist 4.8798
lhand -3.7208 20.2515
lfingers 7.1250
lthumb 22.0220 49.0166
rfemur -5.5811 17.3015 15.6158
rtibia 18.3178
rfoot -9.9105 -28.4110
rtoes 14.4964
lfemur -21.3914 -0.1360 -21.1720
ltibia 26.2753
lfoot -14.6564 27.3016
ltoes 5.2876
5
root 1.6043 17.3469 33.0494 15.6472 -38.2307 -1.0895
lowerback -11.6884 1.5064 0.3016
upperback -6.7235 1.8546 0.4247
thorax -0.4934 0.8862 0.4286
lowerneck -15.9120 -6.1498 -5.4065
upperneck 37.2280 -10.3584 5.3251
head 16.7126 -4.5303 1.2860
rclavicle -0.0000 -0.0000
rhumerus -41.8300 -8.7348 -75.4155
rradius 24.4710
rwrist -10.4756
rhand -2.1837 12.9840
rfingers 7.1250
rthumb 23.4940 -15.5694
lclavicle -0.0000 -0.0000
lhumerus -46.6547 23.2435 59.4010
lradius 34.3862
lwrist 4.9327
lhand -3.6600 20.0984
lfingers 7.1250
lthumb 22.0803 48.8563
rfemur -7.0630 16.8234 16.3072
rtibia 18.7514
rfoot -10.7378 -28.5872
rtoes 14.6741
lfemur -21.4118 0.5963 -21.4107
ltibia 26.7858
lfoot -12.6214 27.6898
ltoes 5.4784
6
root 1.7130 17.3167 31.1180 16.2285 -36.3401 -1.1739
lowerback -11.9627 1.3256 0.4477
upperback -6.9213 1.5989 0.6190
thorax -0.5568 0.7582 0.5170
lowerneck -15.8465 -6.2383 -5.3054
upperneck 37.3137 -10.3870 4.9993
head 16.7056 -4.5670 1.1257
rclavicle -0.0000 -0.0000
rhumerus -42.1758 -8.0882 -75.4382
rradius 24.4810
rwrist -10.8136
rhand -1.9138 12.9628
rfingers 7.1250
rthumb 23.7525 -15.5523
lclavicle -0.0000 -0.0000
lhumerus -47.0450 22.2146 60.5292
lradius 34.3094
lwrist 4.9857
lhand -3.5991 19.9453
lfingers 7.1250
lthumb 22.1387 48.6961
rfemur -8.5449 16.3453 16.9986
rtibia 19.1850
rfoot -11.5650 -28.7633
rtoes 14.8518
lfemur -21.4321 1.3286 -21.6493
ltibia 27.2962
lfoot -10.5864 28.0780
ltoes 5.6692
7
root 1.8217 17.2866 29.1865 16.8098 -34.4495 -1.2583
lowerback -12.2370 1.1449 0.5937
upperback -7.1191 1.3432 0.8133
thorax -0.6203 0.6303 0.6055
lowerneck -15.7809 -6.3267 -5.2042
upperneck 37.3994 -10.4156 4.6735
head 16.6986 -4.6037 0.9654
rclavicle -0.0000 -0.0000
rhumerus -42.5216 -7.4416 -75.4609
rradius 24.4910
rwrist -11.1516
rhand -1.6438 12.9416
rfingers 7.1250
rthumb 24.0110 -15.5352
lclavicle -0.0000 -0.0000
lhumerus -47.4354 21.1857 61.6574
lradius 34.2326
lwrist 5.0386
lhand -3.5383 19.7922
lfingers 7.1250
lthumb 22.1971 48.5359
rfemur -10.0268 15.8673 17.6899
rtibia 19.6185
rfoot -12.3923 -28.9394
rtoes 15.0295
lfemur -21.4525 2.0609 -21.8880
ltibia 27.8067
lfoot -8.5514 28.4662
ltoes 5.8600
8
root 1.9305 17.2564 27.2551 17.3911 -32.5590 -1.3427
lowerback -12.5113 0.9642 0.7398
upperback -7.3169 1.0874 1.0076
thorax -0.6838 0.5023 0.6939
lowerneck -15.7154 -6.4151 -5.1031
upperneck 37.4851 -10.4441 4.3477
head 16.6916 -4.6405 0.8051
rclavicle -0.0000 -0.0000
rhumerus -42.8675 -6.7950 -75.4836
rradius 24.5010
rwrist -11.4897
rhand -1.3738 12.9203
rfingers 7.1250
rthumb 24.2694 -15.5181
lclavicle -0.0000 -0.0000
lhumerus -47.8258 20.1569 62.7857
lradius 34.1558
lwrist 5.0916
lhand -3.4775 19.6391
lfingers 7.1250
lthumb 22.2555 48.3756
rfemur -11.5087 15.3892 18.3813
rtibia 20.0521
rfoot -13.2196 -29.1155
rtoes 15.2073
lfemur -21.4729 2.7931 -22.1266
ltibia 28.3171
lfoot -6.5165 28.8544
ltoes 6.0508
9
root 2.0392 17.2263 25.3237 17.9724 -30.6684 -1.4271
lowerback -12.7856 0.7834 0.8859
upperback -7.5148 0.8317 1.2020
thorax -0.7473 0.3743 0.7824
lowerneck -15.6498 -6.5035 -5.0020
upperneck 37.5708 -10.4727 4.0218
head 16.6846 -4.6772 0.6448
rclavicle -0.0000 -0.0000
rhumerus -43.2133 -6.1484 -75.5062
rradius 24.5110
rwrist -11.8277
rhand -1.1038 12.8991
rfingers 7.1250
rthumb 24.5279 -15.5009
lclavicle -0.0000 -0.0000
lhumerus -48.2161 19.1280 63.9139
lradius 34.0789
lwrist 5.1445
lhand -3.4167 19.4860
lfingers 7.1250
lthumb 22.3138 48.2154
rfemur -12.9906 14.9112 19.0726
rtibia 20.4857
rfoot -14.0468 -29.2916
rtoes 15.3850
lfemur -21.4932 3.5254 -22.3652
ltibia 28.8275
lfoot -4.4815 29.2427
ltoes 6.2415
10
root 2.1480 17.1961 23.3923 18.5537 -28.7778 -1.5116
lowerback -13.0599 0.6027 1.0320
upperback -7.7126 0.5760 1.3963
thorax -0.8108 0.2463 0.8708
lowerneck -15.5843 -6.5920 -4.9008
upperneck 37.6565 -10.5013 3.6960
head 16.6776 -4.7140 0.4845
rclavicle -0.0000 -0.0000
rhumerus -43.5591 -5.5018 -75.5289
rradius 24.5210
rwrist -12.1657
rhand -0.8338 12.8779
rfingers 7.1250
rthumb 24.7864 -15.4838
lclavicle -0.0000 -0.0000
lhumerus -48.6065 18.0991 65.0421
lradius 34.0021
lwrist 5.1975
lhand -3.3559 19.3329
lfingers 7.1250
lthumb 22.3722 48.0552
rfemur -14.4725 14.4331 19.7640
rtibia 20.9193
rfoot -14.8741 -29.4677
rtoes 15.5627
lfemur -21.5136 4.2577 -22.6039
ltibia 29.3380
lfoot -2.4465 29.6309
ltoes 6.4323
11
root 2.2567 17.1659 21.4608 19.1350 -26.8872 -1.5960
lowerback -13.3342 0.4220 1.1780
upperback -7.9104 0.3202 1.5906
thorax -0.8742 0.1183 0.9593
lowerneck -15.5187 -6.6804 -4.7997
upperneck 37.7422 -10.5298 3.3702
head 16.6706 -4.7507 0.3242
rclavicle -0.0000 -0.0000
rhumerus -43.9050 -4.8552 -75.5516
rradius 24.5310
rwrist -12.5037
rhand -0.5639 12.8567
rfingers 7.1250
rthumb 25.0448 -15.4667
lclavicle -0.0000 -0.0000
lhumerus -48.9969 17.0702 66.1703
lradius 33.9253
lwrist 5.2504
lhand -3.2950 19.1798
lfingers 7.1250
lthumb 22.4306 47.8949
rfemur -15.9545 13.9550 20.4554
rtibia 21.3528
rfoot -15.7014 -29.6438
rtoes 15.7404
lfemur -21.5339 4.9900 -22.8425
ltibia 29.8484
lfoot -0.4115 30.0191
ltoes 6.6231
12
root 2.3654 17.1358 19.5294 19.7163 -24.9966 -1.6804
lowerback -13.6085 0.2412 1.3241
upperback -8.1082 0.0645 1.7849
thorax -0.9377 -0.0097 1.0478
lowerneck -15.4532 -6.7688 -4.6986
upperneck 37.8280 -10.5584 3.0443
head 16.6636 -4.7874 0.1639
rclavicle -0.0000 -0.0000
rhumerus -44.2508 -4.2086 -75.5743
rradius 24.5410
rwrist -12.8418
rhand -0.2939 12.8355
rfingers 7.1250
rthumb 25.3033 -15.4496
lclavicle -0.0000 -0.0000
lhumerus -49.3872 16.0414 67.2985
lradius 33.8485
lwrist 5.3034
lhand -3.2342 19.0267
lfingers 7.1250
lthumb 22.4889 47.7347
rfemur -17.4364 13.4770 21.1467
rtibia 21.7864
rfoot -16.5286 -29.8199
rtoes 15.9181
lfemur -21.5543 5.7223 -23.0811
ltibia 30.3588
lfoot 1.6235 30.4073
ltoes 6.8139
13
root 2.4742 17.1056 17.5980 20.2976 -23.1061 -1.7648
lowerback -13.8828 0.0605 1.4702
upperback -8.3060 -0.1912 1.9793
thorax -1.0012 -0.1376 1.1362
lowerneck -15.3876 -6.8572 -4.5974
upperneck 37.9137 -10.5870 2.7185
head 16.6566 -4.8242 0.0036
rclavicle -0.0000 -0.0000
rhumerus -44.5966 -3.5621 -75.5970
rradius 24.5510
rwrist -13.1798
rhand -0.0239 12.8143
rfingers 7.1250
rthumb 25.5618 -15.4325
lclavicle -0.0000 -0.0000
lhumerus -49.7776 15.0125 68.4267
lradius 33.7717
lwrist 5.3563
lhand -3.1734 18.8736
lfingers 7.1250
lthumb 22.5473 47.5745
rfemur -18.9183 12.9989 21.8381
rtibia 22.2200
rfoot -17.3559 -29.9960
rtoes 16.0958
lfemur -21.5746 6.4545 -23.3198
ltibia 30.8693
lfoot 3.6584 30.7955
ltoes 7.0047
